:SAMPLES-PER-SECOND 30
:FRAME-RANGE 1-4244
:FULLY-SPECIFIED
:DEGREES
2520
root  -6.71568 39.656 3.35904 6.57718 61.0302 0.26947
RightUpLeg  -7.75285 -6.09658 -3.29331
RightLeg  13.8959 0.150027 1.15286
RightFoot  -12.9228 0.00497137 6.71315
RightToes  -1.33073e-015 0 -3.6325e-017
Spine  -0.276319 -2.52823 4.75744
Spine1  5.56626 -3.63597 3.63092
HEad  3.44053 45.7013 -12.4797
LeftShoulder1  1.50037 -2.30478 -20.5729
LeftArm  26.4407 -4.76776 -66.9747
LeftForeArm  26.1118 -18.8618 -6.33142
LeftHand  -0.077866 4.50569 7.98016
RightShoulder  1.65057 2.50938 22.1538
RightArm  -28.1587 14.449 40.5679
RightForeArm  58.8332 -5.35698 1.42746
RightHand  0.136315 -6.21094 -20.6805
LeftUpLeg  -22.295 3.49461 3.14581
LeftLeg  23.4507 13.3259 6.56886
LeftFoot  -4.92117 0.260793 -4.1228
LeftToes  2.72522e-012 8.43823e-011 6.24977e-012
2521
root  -6.71793 39.6899 3.53679 7.68425 63.0597 1.30396
RightUpLeg  -7.59703 -6.14747 -3.28057
RightLeg  14.0516 -1.85601 0.54729
RightFoot  -13.2035 0.0140848 6.37758
RightToes  -1.33073e-015 0 -3.6325e-017
Spine  -0.076596 -2.09846 4.60442
Spine1  5.517 -2.98185 2.69019
HEad  0.733929 43.9821 -14.2843
LeftShoulder1  1.47607 -2.23598 -20.4586
LeftArm  24.2792 -5.56014 -65.4902
LeftForeArm  26.0047 -18.1256 -6.85621
LeftHand  -0.0845647 4.41643 8.10612
RightShoulder  1.68187 2.57778 22.3719
RightArm  -29.1295 13.8089 40.7573
RightForeArm  57.924 -5.28719 0.841774
RightHand  0.112109 -6.06417 -20.9479
LeftUpLeg  -22.7444 5.99415 1.05807
LeftLeg  21.936 14.1992 6.5207
LeftFoot  -4.674 0.278986 -4.30732
LeftToes  2.72522e-012 8.43823e-011 6.24977e-012
2522
root  -6.68546 39.7141 3.68267 8.80495 65.9949 2.07739
RightUpLeg  -7.33337 -6.03953 -3.0747
RightLeg  13.8044 -4.8564 -0.149099
RightFoot  -13.3939 0.0277132 6.61787
RightToes  -1.33073e-015 0 -3.6325e-017
Spine  -0.224231 -1.95712 4.59241
Spine1  5.86298 -2.68587 1.87811
HEad  -2.04261 41.8087 -16.0842
LeftShoulder1  1.44733 -2.15882 -20.2977
LeftArm  19.673 -6.53637 -64.2529
LeftForeArm  27.9819 -16.2375 -8.08305
LeftHand  -0.0828294 4.45547 8.22162
RightShoulder  1.77678 2.85579 22.6481
RightArm  -28.8949 13.2018 40.7106
RightForeArm  56.754 -5.35248 1.00514
RightHand  0.0860192 -5.92842 -20.67
LeftUpLeg  -23.5391 8.99535 -1.31137
LeftLeg  20.2071 14.6935 6.21705
LeftFoot  -4.95731 0.268908 -4.28775
LeftToes  2.72522e-012 8.43823e-011 6.24977e-012
2523
root  -6.56729 39.7315 3.84028 9.87297 68.9164 2.81348
RightUpLeg  -6.80824 -6.16481 -2.93102
RightLeg  13.39 -7.60803 -0.478172
RightFoot  -13.5923 0.0390764 6.68073
RightToes  -1.33073e-015 0 -3.6325e-017
Spine  -0.523445 -1.78098 4.52971
Spine1  6.28201 -2.36765 1.19063
HEad  -3.93974 39.7013 -17.1374
LeftShoulder1  1.40072 -2.03741 -20.0069
LeftArm  14.1613 -7.2399 -63.1251
LeftForeArm  30.8035 -13.6009 -9.54568
LeftHand  -0.0899076 4.28568 7.732
RightShoulder  1.81366 2.92452 22.9417
RightArm  -29.0682 12.6448 41.4191
RightForeArm  58.1975 -5.27721 0.835339
RightHand  0.147326 -6.26638 -20.8094
LeftUpLeg  -23.7337 11.6922 -3.6168
LeftLeg  17.7916 15.7259 5.87314
LeftFoot  -4.70956 0.305596 -4.78578
LeftToes  2.72522e-012 8.43823e-011 6.24977e-012
2524
root  -6.34984 39.7131 4.01136 10.4608 71.7146 3.06775
RightUpLeg  -5.99858 -6.06472 -2.61014
RightLeg  12.7596 -10.4039 -0.659251
RightFoot  -13.9531 0.0624201 6.88749
RightToes  -1.33073e-015 0 -3.6325e-017
Spine  -0.890251 -1.57537 4.53105
Spine1  6.44339 -2.02381 0.592694
HEad  -4.68741 37.9895 -17.3446
LeftShoulder1  1.34821 -1.8503 -19.9342
LeftArm  8.80895 -7.3889 -61.6574
LeftForeArm  33.4305 -10.6949 -10.7361
LeftHand  -0.0848879 4.30097 7.25324
RightShoulder  1.84592 2.98117 23.2102
RightArm  -29.5293 12.0558 42.6032
RightForeArm  61.4141 -5.09914 0.422822
RightHand  0.149121 -6.29438 -20.4581
LeftUpLeg  -23.045 11.839 -4.61499
LeftLeg  14.9688 19.2225 5.53447
LeftFoot  -3.38824 0.397048 -5.41755
LeftToes  2.72522e-012 8.43823e-011 6.24977e-012
